<?xml version="1.0" encoding="UTF-8" standalone="no"?><!DOCTYPE svg PUBLIC "-//W3C//DTD SVG 1.1//EN" "http://www.w3.org/Graphics/SVG/1.1/DTD/svg11.dtd"><svg width="100%" height="100%" viewBox="0 0 7288 7288" version="1.1" xmlns="http://www.w3.org/2000/svg" xmlns:xlink="http://www.w3.org/1999/xlink" xml:space="preserve" xmlns:serif="http://www.serif.com/" style="fill-rule:evenodd;clip-rule:evenodd;stroke-linejoin:round;stroke-miterlimit:2;"><g id="Layer1"><rect x="516.627" y="2197.77" width="6289.83" height="2890.22" style="fill:#fff;"/><g><path d="M1118.58,4637.06l579.261,-1029.2l-573.873,-956.455l385.277,-0l444.549,770.552l64.662,0l444.549,-770.552l385.277,-0l-571.179,956.455l579.261,1029.2l-387.97,0l-449.938,-827.131l-64.662,-0l-447.244,827.131l-387.97,0Z" style="fill-rule:nonzero;"/><path d="M3505.67,4637.06l0,-1678.51l-552.319,0l0,-307.143l1441.42,-0l0,307.143l-552.319,0l0,1678.51l-336.78,0Z" style="fill-rule:nonzero;"/><path d="M4887.82,4637.06l-290.978,-299.06l0,-1387.53l299.061,-299.06l986.092,-0l274.812,272.118l-215.539,215.539l-193.985,-191.291l-695.114,0l-118.547,118.547l2.695,1155.83l115.852,118.546l517.294,0l309.837,-277.507l0,-220.927l-452.632,-0l0,-296.367l732.833,0l0,1091.17l-280.201,0l0,-204.762l-226.316,204.762l-765.164,0Z" style="fill-rule:nonzero;"/></g><g><path d="M326.778,5487.08l-205.573,-203.556l0,-3278.58l205.448,-205.447l4068.15,-0l0,412.13l-3860.71,-0l-0,2867.82l2419.26,0l-0,408.555l-2626.58,-0.927Z" style="fill:#435dcf;"/><path d="M4394.81,1799.5l2590.59,-0l206.352,206.352l0,3277.67l-191.021,204.483l-4047.36,0l-0,-408.394l3845.12,0l-0,-2863.83l-2403.67,-4.146l0,-412.132Z" style="fill:#6dc949;"/></g></g></svg>